<svg xmlns="http://www.w3.org/2000/svg" width="16" height="16" viewBox="0 0 16 16"><path d="M 2.5136719 0.5 C 1.8689862 0.5 1.319475 0.91810793 1.109375 1.4941406 L 0.5078125 1.4941406 A 0.50004994 0.50004994 0 1 0 0.5078125 2.4941406 L 1.1054688 2.4941406 C 1.2575286 2.9203228 1.5948308 3.257176 2.0214844 3.4082031 L 2.0214844 4 A 0.50004994 0.50004994 0 0 0 2.0234375 4.046875 C 0.89070472 4.2632195 0.013671875 5.2131375 0.013671875 6.375 L 0.013671875 7.4179688 A 0.50004994 0.50004994 0 0 0 0.013671875 7.5820312 L 0.013671875 11.417969 A 0.50004994 0.50004994 0 0 0 0.013671875 11.582031 L 0.013671875 12.625 C 0.013671875 13.9501 1.1541077 15 2.5136719 15 C 3.8732364 15 5.0136719 13.9501 5.0136719 12.625 L 5.0136719 11.578125 A 0.50004994 0.50004994 0 0 0 5.0136719 11.417969 L 5.0136719 11 L 6.0078125 11 A 0.50004994 0.50004994 0 0 0 6.0136719 11 L 6.0136719 11.417969 A 0.50004994 0.50004994 0 0 0 6.0136719 11.582031 L 6.0136719 12.625 C 6.0136719 13.9501 7.1541075 15 8.5136719 15 C 9.8732362 15 11.013672 13.9501 11.013672 12.625 L 11.013672 11.578125 A 0.50004994 0.50004994 0 0 0 11.013672 11.417969 L 11.013672 7.578125 A 0.50004994 0.50004994 0 0 0 11.013672 7.4179688 L 11.013672 6.375 C 11.013672 5.8589998 10.838376 5.3868154 10.546875 5 L 12 5 C 12.56265 5 13 5.4374 13 6 L 13 10.59375 C 12.42487 10.804335 12.007812 11.355969 12.007812 12 C 12.007812 12.8225 12.685308 13.5 13.507812 13.5 C 14.330317 13.5 15.007813 12.8225 15.007812 12 C 15.007813 11.350358 14.582928 10.796189 14 10.589844 L 14 6 C 14 4.9007 13.099352 4 12 4 L 9.0136719 4 L 9.0136719 3.4042969 C 9.4340916 3.250954 9.7655421 2.9158774 9.9160156 2.4941406 L 10.507812 2.4941406 A 0.50004994 0.50004994 0 1 0 10.507812 1.4941406 L 9.9121094 1.4941406 C 9.7020097 0.91810793 9.1524982 0.5 8.5078125 0.5 C 7.8631268 0.5 7.3136156 0.91810793 7.1035156 1.4941406 L 6.5078125 1.4941406 A 0.50004994 0.50004994 0 1 0 6.5078125 2.4941406 L 7.0996094 2.4941406 C 7.2514612 2.9197398 7.5878367 3.2568663 8.0136719 3.4082031 L 8.0136719 4 L 3.0214844 4 L 3.0214844 3.4042969 C 3.4410876 3.2506581 3.7716093 2.9152944 3.921875 2.4941406 L 4.5078125 2.4941406 A 0.50004994 0.50004994 0 1 0 4.5078125 1.4941406 L 3.9179688 1.4941406 C 3.7078687 0.91810793 3.1583576 0.5 2.5136719 0.5 z M 2.5136719 1.5 C 2.7957366 1.5 3.0136719 1.718 3.0136719 2 C 3.0136719 2.271622 2.8097656 2.4787592 2.5429688 2.4941406 A 0.50004994 0.50004994 0 0 0 2.5136719 2.4941406 A 0.50004994 0.50004994 0 0 0 2.4882812 2.4941406 C 2.219524 2.4806427 2.0136718 2.2729659 2.0136719 2 C 2.0136718 1.718 2.2316072 1.5 2.5136719 1.5 z M 8.5078125 1.5 C 8.7780569 1.5 8.9847116 1.7020128 9.0019531 1.9667969 A 0.50004994 0.50004994 0 0 0 9.0019531 2.0273438 C 8.9879366 2.2847087 8.7941814 2.4793199 8.5371094 2.4941406 A 0.50004994 0.50004994 0 0 0 8.5058594 2.4941406 A 0.50004994 0.50004994 0 0 0 8.4824219 2.4941406 C 8.2260833 2.4812664 8.0313742 2.289927 8.0136719 2.0351562 A 0.50004994 0.50004994 0 0 0 8.0136719 1.9667969 C 8.0309134 1.7020128 8.2375681 1.5 8.5078125 1.5 z M 2.5136719 5 C 3.3701078 5 4.0136719 5.6226 4.0136719 6.375 L 4.0136719 7 L 1.0136719 7 L 1.0136719 6.375 C 1.0136719 5.6226 1.6572365 5 2.5136719 5 z M 4.546875 5 L 6.4804688 5 C 6.1889677 5.3868154 6.0136719 5.8589998 6.0136719 6.375 L 6.0136719 7.4179688 A 0.50004994 0.50004994 0 0 0 6.0136719 7.5820312 L 6.0136719 8 A 0.50004994 0.50004994 0 0 0 6.0078125 8 L 5.0136719 8 L 5.0136719 7.578125 A 0.50004994 0.50004994 0 0 0 5.0136719 7.4179688 L 5.0136719 6.375 C 5.0136719 5.8590387 4.8383761 5.3868194 4.546875 5 z M 8.5136719 5 C 9.3701075 5 10.013672 5.6225 10.013672 6.375 L 10.013672 7 L 7.0136719 7 L 7.0136719 6.375 C 7.0136719 5.6225 7.6572362 5 8.5136719 5 z M 1.0136719 8 L 4.0136719 8 L 4.0136719 11 L 1.0136719 11 L 1.0136719 8 z M 7.0136719 8 L 10.013672 8 L 10.013672 11 L 7.0136719 11 L 7.0136719 8 z M 5.0136719 9 L 6.0078125 9 A 0.50004994 0.50004994 0 0 0 6.0136719 9 L 6.0136719 10 A 0.50004994 0.50004994 0 0 0 6.0078125 10 L 5.0136719 10 L 5.0136719 9 z M 13.507812 11.5 C 13.789877 11.5 14.007813 11.718 14.007812 12 C 14.007813 12.2821 13.789877 12.5 13.507812 12.5 C 13.225748 12.5 13.007813 12.2821 13.007812 12 C 13.007812 11.718 13.225749 11.5 13.507812 11.5 z M 1.0136719 12 L 4.0136719 12 L 4.0136719 12.625 C 4.0136719 13.3776 3.3701078 14 2.5136719 14 C 1.6572365 14 1.0136719 13.3776 1.0136719 12.625 L 1.0136719 12 z M 7.0136719 12 L 10.013672 12 L 10.013672 12.625 C 10.013672 13.3776 9.3701075 14 8.5136719 14 C 7.6572362 14 7.0136719 13.3776 7.0136719 12.625 L 7.0136719 12 z " color="#000" font-family="sans-serif" font-weight="400" overflow="visible" style="line-height:normal;text-indent:0;text-align:start;text-decoration-line:none;text-decoration-style:solid;text-decoration-color:#000;text-transform:none;block-progression:tb;isolation:auto;mix-blend-mode:normal"/></svg>